<?xml version="1.0" encoding="UTF-8" standalone="no"?>
<svg
   xmlns:dc="http://purl.org/dc/elements/1.1/"
   xmlns:cc="http://creativecommons.org/ns#"
   xmlns:rdf="http://www.w3.org/1999/02/22-rdf-syntax-ns#"
   xmlns:svg="http://www.w3.org/2000/svg"
   xmlns="http://www.w3.org/2000/svg"
   xmlns:sodipodi="http://sodipodi.sourceforge.net/DTD/sodipodi-0.dtd"
   xmlns:inkscape="http://www.inkscape.org/namespaces/inkscape"
   id="svg2989"
   version="1.1"
   viewBox="0 0 115.35248 31.350611"
   height="31.350611mm"
   width="115.35248mm"
   sodipodi:docname="gsreg_logotype.svg"
   inkscape:version="0.92.2 (5c3e80d, 2017-08-06)">
  <sodipodi:namedview
     pagecolor="#ffffff"
     bordercolor="#666666"
     borderopacity="1"
     objecttolerance="10"
     gridtolerance="10"
     guidetolerance="10"
     inkscape:pageopacity="0"
     inkscape:pageshadow="2"
     inkscape:window-width="1920"
     inkscape:window-height="1019"
     id="namedview14"
     showgrid="false"
     inkscape:zoom="4.8397104"
     inkscape:cx="230.12263"
     inkscape:cy="20.672649"
     inkscape:window-x="0"
     inkscape:window-y="27"
     inkscape:window-maximized="1"
     inkscape:current-layer="g3700" />
  <defs
     id="defs2983" />
  <metadata
     id="metadata2986">
    <rdf:RDF>
      <cc:Work
         rdf:about="">
        <dc:format>image/svg+xml</dc:format>
        <dc:type
           rdf:resource="http://purl.org/dc/dcmitype/StillImage" />
        <dc:title />
      </cc:Work>
    </rdf:RDF>
  </metadata>
  <g
     transform="translate(-35.922076,-179.13414)"
     id="layer1"
     style="fill:#333333">
    <g
       id="g3700"
       transform="translate(-8.3624576,-1.7020487)"
       style="fill:#333333">
      <g
         aria-label="GSReg"
         style="font-style:normal;font-weight:normal;font-size:33.68627548px;line-height:1.25;font-family:sans-serif;letter-spacing:0px;word-spacing:0px;fill:#333333;fill-opacity:1;stroke:none;stroke-width:0.84215683"
         id="text30"
         transform="translate(-3.3394096,-10.054166)">
        <path
           d="m 62.624863,203.45691 h 9.737439 v 9.03016 q -1.134938,0.59214 -2.253428,1.10204 -1.118489,0.5099 -2.401463,0.88822 -1.282973,0.36186 -2.796224,0.55924 -1.496802,0.21383 -3.388365,0.21383 -3.026502,0 -5.576,-0.83887 -2.549499,-0.85531 -4.408165,-2.40146 -1.842218,-1.54615 -2.878466,-3.71733 -1.036248,-2.17119 -1.036248,-4.83583 0,-1.85866 0.460555,-3.51995 0.477003,-1.66129 1.332318,-3.0594 0.871764,-1.39811 2.105393,-2.50015 1.250076,-1.11849 2.779775,-1.89156 1.546148,-0.77308 3.355469,-1.18429 1.809321,-0.41121 3.832472,-0.41121 1.792873,0 3.437711,0.47701 1.644837,0.477 3.042949,1.28297 1.414561,0.78952 2.53305,1.82577 1.11849,1.0198 1.858667,2.10539 l -2.368566,2.17119 q -0.740177,-1.0527 -1.562596,-1.95736 -0.805971,-0.90466 -1.72708,-1.5626 -0.904661,-0.67438 -1.957357,-1.05269 -1.036247,-0.37831 -2.236979,-0.37831 -1.82577,0 -3.388365,0.65793 -1.562596,0.64149 -2.697534,1.89156 -1.134938,1.23363 -1.792873,3.02651 -0.641487,1.79287 -0.641487,4.07919 0,2.26988 0.690832,4.02986 0.690832,1.74352 1.875115,2.94425 1.184283,1.18429 2.779775,1.80933 1.611941,0.60859 3.437711,0.60859 1.085593,0 2.056047,-0.27963 0.970454,-0.29607 1.776425,-0.87176 v -6.23394 h -3.980507 z"
           style="font-style:normal;font-variant:normal;font-weight:normal;font-stretch:normal;font-family:'Tamil MN';-inkscape-font-specification:'Tamil MN';fill:#333333;fill-opacity:1;stroke-width:0.84215683"
           id="path3811" />
        <path
           d="m 86.195387,215.2504 q -2.105393,0 -3.684437,-0.49345 -1.579044,-0.49345 -2.697534,-1.36522 -1.102041,-0.87176 -1.759976,-2.07249 -0.641487,-1.20073 -0.888212,-2.63174 h 3.980507 q 0.213829,0.87176 0.60859,1.64483 0.394761,0.75663 1.003351,1.31587 0.60859,0.55925 1.447457,0.88822 0.838867,0.31252 1.940908,0.31252 0.740177,0 1.447458,-0.14804 0.723728,-0.16448 1.282973,-0.5099 0.575693,-0.34542 0.921109,-0.90466 0.345416,-0.57569 0.345416,-1.39811 0,-1.0527 -0.542796,-1.85867 -0.526348,-0.80597 -1.414561,-1.4639 -0.871764,-0.67439 -2.006702,-1.25008 -1.118489,-0.57569 -2.286324,-1.15139 -1.167835,-0.59214 -2.302773,-1.21718 -1.118489,-0.64148 -2.006702,-1.43101 -0.871764,-0.78952 -1.41456,-1.77642 -0.526348,-0.9869 -0.526348,-2.26988 0,-1.39811 0.60859,-2.58239 0.60859,-1.20073 1.759976,-2.0725 1.167835,-0.87176 2.845569,-1.36521 1.677735,-0.49345 3.816024,-0.49345 1.776424,0 3.207433,0.49345 1.431009,0.49345 2.516602,1.34876 1.102041,0.83887 1.842218,1.99026 0.756625,1.15138 1.151386,2.4837 h -3.618643 q -0.312519,-0.83886 -0.723728,-1.59549 -0.41121,-0.75662 -1.0198,-1.33232 -0.60859,-0.57569 -1.463905,-0.90466 -0.855316,-0.34541 -2.056047,-0.34541 -1.11849,0 -1.891564,0.29607 -0.773073,0.29607 -1.250076,0.75662 -0.477003,0.44411 -0.690832,1.00335 -0.197381,0.55925 -0.197381,1.10204 0,0.93756 0.542797,1.71063 0.559245,0.75663 1.463905,1.41457 0.92111,0.64148 2.072496,1.25007 1.151386,0.59214 2.352118,1.20073 1.21718,0.60859 2.368566,1.26653 1.167835,0.65793 2.072495,1.4639 0.92111,0.78953 1.463906,1.75998 0.559245,0.97045 0.559245,2.18763 0,1.43101 -0.592142,2.66464 -0.592141,1.21718 -1.759976,2.13829 -1.151386,0.90466 -2.878466,1.43101 -1.710631,0.5099 -3.94761,0.5099 z"
           style="font-style:normal;font-variant:normal;font-weight:normal;font-stretch:normal;font-family:'Tamil MN';-inkscape-font-specification:'Tamil MN';fill:#333333;fill-opacity:1;stroke-width:0.84215683"
           id="path3813" />
        <path
           d="m 100.19295,191.46605 h 8.79988 q 2.26988,0 3.98051,0.477 1.71063,0.477 2.84557,1.33232 1.13494,0.85531 1.69418,2.02315 0.5757,1.16783 0.5757,2.5495 0,0.9869 -0.39476,1.89156 -0.37832,0.88821 -1.0856,1.64484 -0.70728,0.74017 -1.69418,1.33232 -0.9869,0.57569 -2.18763,0.954 l 8.33932,11.21779 h -6.23393 l -7.87877,-10.6092 h -1.0198 v 10.6092 h -5.74049 z m 5.74049,10.79013 h 1.25007 q 1.0527,0 1.94091,-0.29607 0.90466,-0.29607 1.5626,-0.83887 0.65793,-0.55924 1.03625,-1.34876 0.37831,-0.80597 0.37831,-1.80933 0,-0.9211 -0.29607,-1.69418 -0.27963,-0.77307 -0.78952,-1.33232 -0.5099,-0.57569 -1.21718,-0.88821 -0.69084,-0.31252 -1.5297,-0.31252 h -2.33567 z"
           style="font-style:normal;font-variant:normal;font-weight:normal;font-stretch:normal;font-family:'Tamil MN';-inkscape-font-specification:'Tamil MN';fill:#333333;fill-opacity:1;stroke-width:0.84215683"
           id="path3815" />
        <path
           d="m 131.1159,215.2833 q -1.89156,0 -3.55285,-0.69084 -1.64484,-0.70728 -2.87846,-1.89156 -1.23363,-1.18428 -1.94091,-2.74688 -0.70728,-1.57904 -0.70728,-3.32257 0,-2.08894 0.65793,-3.86537 0.65794,-1.79287 1.85867,-3.09229 1.20073,-1.31587 2.89491,-2.05605 1.69419,-0.74018 3.76668,-0.74018 1.84222,0 3.37192,0.59214 1.54615,0.5757 2.63174,1.61194 1.10204,1.0198 1.71063,2.40147 0.60859,1.36521 0.60859,2.94426 h -12.23759 q 0.0493,1.4639 0.41121,2.79622 0.37831,1.33232 1.00335,2.35212 0.62504,1.0198 1.4639,1.62839 0.83887,0.59214 1.85867,0.59214 0.88821,0 1.74353,-0.29607 0.85531,-0.31252 1.57904,-0.83887 0.72373,-0.54279 1.25008,-1.25007 0.52635,-0.70729 0.77307,-1.49681 l 2.74688,0.41121 q -0.41121,1.43101 -1.33232,2.69754 -0.90466,1.26652 -2.12184,2.22053 -1.21718,0.93755 -2.66463,1.4968 -1.43101,0.5428 -2.89492,0.5428 z m 2.26988,-12.6817 q -0.0658,-0.78952 -0.34542,-1.43101 -0.26317,-0.64149 -0.69083,-1.10204 -0.41121,-0.46056 -0.97046,-0.70728 -0.54279,-0.26318 -1.18428,-0.26318 -0.49345,0 -0.97045,0.24673 -0.47701,0.24672 -0.87177,0.70728 -0.39476,0.46055 -0.67438,1.11849 -0.26317,0.64149 -0.34542,1.43101 z"
           style="font-style:normal;font-variant:normal;font-weight:normal;font-stretch:normal;font-family:'Tamil MN';-inkscape-font-specification:'Tamil MN';fill:#333333;fill-opacity:1;stroke-width:0.84215683"
           id="path3817" />
        <path
           d="m 162.97641,198.40726 v 1.85867 h -3.24033 q 0.42766,0.65793 0.69083,1.41456 0.26317,0.75662 0.26317,1.64484 0,1.4639 -0.67438,2.61529 -0.65794,1.15138 -1.85867,1.94091 -1.20073,0.78952 -2.87846,1.21718 -1.66129,0.41121 -3.68444,0.41121 -0.57569,0 -1.20073,-0.0658 -0.62504,-0.0822 -1.13494,-0.18093 -0.34541,0.27962 -0.55924,0.67438 -0.19738,0.37832 -0.19738,0.80597 0,0.13159 0.0658,0.24673 0.0822,0.11514 0.36186,0.23028 0.27963,0.0987 0.80597,0.19738 0.5428,0.0822 1.44746,0.16448 0.90466,0.0822 2.25343,0.16448 1.36521,0.0658 3.27323,0.13159 1.75997,0.0658 2.9607,0.37831 1.20074,0.29608 1.92446,0.80597 0.74018,0.49346 1.0527,1.18429 0.32897,0.67438 0.32897,1.51325 0,1.48035 -0.78952,2.68108 -0.78953,1.20074 -2.26988,2.0396 -1.48035,0.83887 -3.61864,1.29942 -2.13829,0.46056 -4.81938,0.46056 -2.41791,0 -4.22723,-0.26318 -1.80932,-0.24672 -3.0265,-0.72372 -1.20073,-0.46056 -1.80932,-1.11849 -0.59214,-0.65794 -0.59214,-1.46391 0,-0.59214 0.34541,-1.16783 0.34542,-0.5757 0.88821,-1.15139 0.55925,-0.55924 1.25008,-1.10204 0.70728,-0.5428 1.43101,-1.08559 -1.0198,-0.34542 -1.64484,-0.85532 -0.60859,-0.52635 -0.60859,-1.18428 0,-0.46056 0.27962,-0.95401 0.27963,-0.49345 0.75663,-0.97045 0.49345,-0.47701 1.13494,-0.90466 0.64148,-0.42766 1.38166,-0.75663 -0.87176,-0.39476 -1.5626,-0.87176 -0.69083,-0.47701 -1.18428,-1.0856 -0.477,-0.60859 -0.74018,-1.36521 -0.26317,-0.75663 -0.26317,-1.71063 0,-1.4968 0.65794,-2.66464 0.67438,-1.16783 1.84221,-1.9738 1.16784,-0.80597 2.74688,-1.21718 1.5955,-0.41121 3.43771,-0.41121 0.87177,0 1.71063,0.0987 0.85532,0.0822 1.5955,0.24672 0.74017,0.16449 1.31587,0.37831 0.59214,0.19739 0.93755,0.44411 z m -6.90832,16.6951 q -1.20073,0 -2.40146,-0.0493 -1.20074,-0.0329 -2.28633,-0.0987 -1.06914,-0.0658 -1.94091,-0.13159 -0.87176,-0.0822 -1.41456,-0.14803 -0.57569,0.46055 -0.88821,1.11849 -0.29607,0.67438 -0.29607,1.31587 0,0.49345 0.37831,0.93755 0.37832,0.46056 1.13494,0.80597 0.75663,0.34542 1.87512,0.5428 1.13493,0.21383 2.63174,0.21383 1.62839,0 2.91136,-0.24673 1.28297,-0.23027 2.17118,-0.60859 0.90466,-0.37831 1.36522,-0.85531 0.477,-0.47701 0.477,-0.95401 0,-0.477 -0.26317,-0.83887 -0.26318,-0.34541 -0.75663,-0.57569 -0.477,-0.21383 -1.16783,-0.32897 -0.67439,-0.0987 -1.5297,-0.0987 z m -3.86537,-6.99056 q 0.59214,0 1.13494,-0.32896 0.55924,-0.32897 0.9869,-0.88822 0.44411,-0.55924 0.69083,-1.26652 0.26318,-0.72373 0.26318,-1.4968 0,-1.13494 -0.29607,-2.13829 -0.29607,-1.00335 -0.80597,-1.74353 -0.5099,-0.75663 -1.18429,-1.18428 -0.67438,-0.44411 -1.43101,-0.44411 -0.72372,0 -1.23362,0.34542 -0.5099,0.34541 -0.85532,0.93755 -0.32897,0.5757 -0.49345,1.34877 -0.14804,0.77307 -0.14804,1.64484 0,1.05269 0.23028,2.0067 0.24673,0.93756 0.69083,1.66129 0.44411,0.70728 1.06915,1.13493 0.62504,0.41121 1.38166,0.41121 z"
           style="font-style:normal;font-variant:normal;font-weight:normal;font-stretch:normal;font-family:'Tamil MN';-inkscape-font-specification:'Tamil MN';fill:#333333;fill-opacity:1;stroke-width:0.84215683"
           id="path3819" />
      </g>
      <path
         style="fill:#1a1a1a;fill-opacity:0;stroke:#333333;stroke-width:0.46460134;stroke-linecap:butt;stroke-linejoin:miter;stroke-opacity:1"
         d="M 71.548546,208.50037 H 132.373"
         id="path4644" />
    </g>
  </g>
</svg>
